# xmcd CD database file
#
# Track frame offsets:
#	150
#	17135
#	31533
#	47619
#	62313
#	78801
#	93394
#	109010
#	122928
#	142698
#	159719
#	176495
#
# Disc length: 2601 seconds
#
# Revision: 0
# Processed by: cddbd v1.5.1PL2 Copyright (c) Steve Scherf et al.
# Submitted via: NeoAudio 9.9.9
#
DISCID=850a270c
DTITLE=get up and dance workshop 46 - get up and dance workshop 46
DYEAR=1900
DGENRE=Country
TTITLE0=Everybody Says - The Ranchhands
TTITLE1=Do It In Dixie - Hank Williams Jr
TTITLE2=Bomshel Stomp - Bomshel
TTITLE3=Vineyard - Duo Rodeo
TTITLE4=Ole - Azucar Moreno
TTITLE5=12th Of Never 1 - Dolly Parton and  Keith  Urbain
TTITLE6=It's Up To You - Babara Streisand
TTITLE7=Sway - Michael Bublé
TTITLE8=My Way - Collin Ray
TTITLE9=Celtic Kittens - Michael Flatley
TTITLE10=Sweet addiction - Modern Talking
TTITLE11=Old Mexico - George Strait
EXTD=
EXTT0=
EXTT1=
EXTT2=
EXTT3=
EXTT4=
EXTT5=
EXTT6=
EXTT7=
EXTT8=
EXTT9=
EXTT10=
EXTT11=
PLAYORDER=
